<svg width="54" height="55" viewBox="0 0 54 55" fill="none" xmlns="http://www.w3.org/2000/svg">
<path d="M30.375 17.1875H23.625V20.625H30.375V17.1875Z" fill="black"/>
<path d="M30.375 34.375H23.625V37.8125H30.375V34.375Z" fill="black"/>
<path d="M20.25 24.0625H16.875V30.9375H20.25V24.0625Z" fill="black"/>
<path d="M23.625 20.625H20.25V24.0625H23.625V20.625Z" fill="black"/>
<path d="M33.75 20.625H30.375V24.0625H33.75V20.625Z" fill="black"/>
<path d="M23.625 30.9375H20.25V34.375H23.625V30.9375Z" fill="black"/>
<path d="M33.75 30.9375H30.375V34.375H33.75V30.9375Z" fill="black"/>
<path d="M37.125 24.0625H33.75V30.9375H37.125V24.0625Z" fill="black"/>
<path d="M23.625 3.4375H20.25V10.3125H23.625V3.4375Z" fill="black"/>
<path d="M33.75 3.4375H30.375V10.3125H33.75V3.4375Z" fill="black"/>
<path d="M30.375 0H23.625V3.4375H30.375V0Z" fill="black"/>
<path d="M16.875 6.875H10.125V10.3125H16.875V6.875Z" fill="black"/>
<path d="M37.125 10.3125H33.75V13.75H37.125V10.3125Z" fill="black"/>
<path d="M47.25 10.3125H43.875V17.1875H47.25V10.3125Z" fill="black"/>
<path d="M10.125 10.3125H6.75V17.1875H10.125V10.3125Z" fill="black"/>
<path d="M43.875 6.875H37.125V10.3125H43.875V6.875Z" fill="black"/>
<path d="M20.25 10.3125H16.875V13.75H20.25V10.3125Z" fill="black"/>
<path d="M3.375 24.0625H0V30.9375H3.375V24.0625Z" fill="black"/>
<path d="M10.125 20.625H3.375V24.0625H10.125V20.625Z" fill="black"/>
<path d="M10.125 30.9375H3.375V34.375H10.125V30.9375Z" fill="black"/>
<path d="M50.625 24.0625H54V30.9375H50.625V24.0625Z" fill="black"/>
<path d="M43.875 20.625H50.625V24.0625H43.875V20.625Z" fill="black"/>
<path d="M43.875 30.9375H50.625V34.375H43.875V30.9375Z" fill="black"/>
<path d="M13.5 17.1875H10.125V20.625H13.5V17.1875Z" fill="black"/>
<path d="M43.875 17.1875H40.5V20.625H43.875V17.1875Z" fill="black"/>
<path d="M23.625 51.5625H20.25V44.6875H23.625V51.5625Z" fill="black"/>
<path d="M33.75 51.5625H30.375V44.6875H33.75V51.5625Z" fill="black"/>
<path d="M30.375 55H23.625V51.5625H30.375V55Z" fill="black"/>
<path d="M16.875 48.125H10.125V44.6875H16.875V48.125Z" fill="black"/>
<path d="M37.125 44.6875H33.75V41.25H37.125V44.6875Z" fill="black"/>
<path d="M47.25 44.6875H43.875V37.8125H47.25V44.6875Z" fill="black"/>
<path d="M10.125 44.6875H6.75V37.8125H10.125V44.6875Z" fill="black"/>
<path d="M43.875 48.125H37.125V44.6875H43.875V48.125Z" fill="black"/>
<path d="M20.25 44.6875H16.875V41.25H20.25V44.6875Z" fill="black"/>
<path d="M13.5 37.8125H10.125V34.375H13.5V37.8125Z" fill="black"/>
<path d="M43.875 37.8125H40.5V34.375H43.875V37.8125Z" fill="black"/>
</svg>
